<?xml version="1.0" standalone="no"?>
<!DOCTYPE svg PUBLIC "-//W3C//DTD SVG 20010904//EN"
 "http://www.w3.org/TR/2001/REC-SVG-20010904/DTD/svg10.dtd">
<svg version="1.0" xmlns="http://www.w3.org/2000/svg"
 width="300.000000pt" height="300.000000pt" viewBox="0 0 300.000000 300.000000"
 preserveAspectRatio="xMidYMid meet">
<metadata>
Created by potrace 1.10, written by Peter Selinger 2001-2011
</metadata>
<g transform="translate(0.000000,300.000000) scale(0.100000,-0.100000)"
fill="#000000" stroke="none">
<path d="M1457 2588 c-14 -18 -34 -52 -46 -75 -12 -24 -24 -43 -27 -43 -3 0
-15 11 -26 25 -11 14 -25 25 -32 25 -17 0 -46 -32 -46 -51 0 -8 -12 -25 -26
-38 -21 -20 -24 -30 -19 -58 9 -48 -16 -53 -60 -14 -42 37 -68 39 -89 9 -21
-30 -21 -30 19 -77 19 -24 32 -48 29 -56 -4 -8 -23 -19 -44 -25 -53 -14 -59
-38 -19 -72 32 -27 35 -58 6 -58 -8 0 -22 -9 -33 -21 -15 -17 -16 -23 -5 -40
7 -12 10 -33 6 -49 -5 -23 -2 -31 15 -40 16 -9 25 -9 33 -1 55 55 -46 -152
-107 -220 -52 -57 -67 -102 -55 -163 9 -49 51 -124 74 -133 8 -3 39 -54 69
-113 l54 -108 -29 12 c-35 13 -53 -4 -44 -41 3 -13 0 -31 -6 -42 -16 -24 -6
-49 25 -61 36 -13 37 -32 2 -62 -26 -22 -29 -30 -20 -45 6 -10 25 -23 42 -29
53 -17 55 -27 17 -70 -39 -44 -43 -63 -17 -87 24 -22 43 -21 68 1 47 42 53 45
68 33 10 -8 13 -23 9 -46 -4 -28 -1 -36 21 -50 14 -10 23 -21 20 -27 -8 -12
23 -58 40 -58 7 0 25 12 40 27 14 14 28 24 30 22 2 -2 14 -24 26 -49 25 -50
67 -100 85 -100 18 0 50 40 79 98 15 28 29 52 32 52 3 0 15 -12 28 -26 28 -33
63 -26 72 14 4 15 18 38 31 51 18 16 23 30 19 46 -7 27 2 55 16 55 6 0 26 -13
45 -30 40 -36 55 -37 82 -9 23 25 17 44 -26 90 -21 23 -24 57 -4 60 3 0 17 2
30 3 22 3 51 29 51 48 0 4 -13 17 -30 30 -36 26 -38 45 -7 57 38 15 48 33 33
63 -9 17 -10 31 -4 42 19 34 -32 62 -61 34 -10 -11 -10 -8 -2 13 23 63 92 189
109 201 40 28 75 99 73 150 -1 57 -35 133 -68 155 -20 13 -123 196 -123 218 0
3 10 1 21 -6 18 -9 25 -7 41 9 17 17 18 22 7 40 -10 16 -10 23 0 36 17 21 5
55 -25 66 -31 12 -31 33 1 54 42 28 29 70 -24 78 -44 6 -48 32 -13 72 35 41
40 67 16 90 -23 24 -47 19 -79 -14 -32 -33 -47 -37 -64 -16 -9 11 -10 20 -1
35 9 18 6 25 -17 47 -15 14 -27 33 -25 41 4 17 -25 53 -43 53 -6 0 -22 -11
-35 -25 -12 -13 -27 -22 -32 -19 -5 3 -22 32 -38 64 -44 87 -74 99 -113 48z
m53 -7 c0 -5 101 -207 224 -448 145 -283 229 -437 238 -436 7 2 28 -23 46 -57
l33 -60 -168 0 c-165 1 -167 1 -134 18 61 30 60 37 -12 178 l-65 129 -174 3
-173 2 -68 -130 c-38 -72 -66 -137 -63 -145 7 -19 73 -51 83 -41 5 4 -2 16
-15 27 -15 11 -22 27 -20 40 5 36 21 32 50 -14 52 -81 170 -222 193 -231 35
-14 51 3 191 197 30 42 59 77 64 77 4 0 10 -10 13 -22 5 -16 -1 -30 -19 -49
-30 -32 -27 -71 10 -108 l25 -25 -56 -108 c-41 -79 -62 -110 -79 -114 -12 -3
-79 -4 -149 -2 -113 3 -128 5 -138 23 -7 10 -33 60 -59 109 l-48 90 27 28 c15
15 25 30 22 32 -8 9 -89 -33 -89 -46 -1 -7 30 -73 67 -146 l68 -132 170 2 170
3 68 133 c75 147 75 151 10 179 -18 7 -33 14 -33 16 0 1 74 2 165 2 91 0 165
-1 165 -2 0 -2 -12 -27 -27 -58 -17 -35 -33 -55 -44 -55 -13 0 -55 -73 -155
-267 -75 -148 -179 -349 -230 -449 l-92 -181 -171 336 c-284 559 -285 561
-301 561 -14 0 -70 86 -70 106 0 5 51 8 112 6 124 -4 218 4 218 19 0 5 -74 9
-174 9 l-175 0 32 56 c18 31 41 60 52 64 14 5 93 151 245 449 123 243 228 441
232 441 5 0 8 -4 8 -9z m-169 -112 c7 -14 8 -24 1 -31 -7 -7 -16 0 -26 21 -14
27 -15 31 -2 31 9 0 20 -9 27 -21z m349 14 c-1 -5 -7 -19 -14 -32 -15 -27 -31
-13 -21 19 6 19 35 29 35 13z m-400 -92 c17 -33 12 -46 -10 -26 -21 19 -27 45
-10 45 5 0 14 -9 20 -19z m450 13 c0 -3 -9 -17 -19 -30 -22 -28 -38 -15 -19
16 12 18 38 28 38 14z m-510 -168 c-7 -7 -29 8 -67 44 -32 30 -59 55 -61 56
-1 1 1 9 4 18 6 15 18 7 70 -45 43 -42 60 -67 54 -73z m653 91 c-34 -37 -114
-99 -120 -93 -4 3 20 34 53 69 42 45 63 60 72 53 10 -7 9 -13 -5 -29z m-698
-127 c10 -11 16 -23 12 -26 -7 -7 -57 25 -57 37 0 16 26 9 45 -11z m665 10 c0
-14 -49 -44 -58 -36 -4 4 4 16 18 26 28 22 40 25 40 10z m-744 -34 c10 -8 16
-17 12 -21 -11 -11 -48 5 -48 21 0 18 11 18 36 0z m824 0 c0 -16 -37 -32 -48
-21 -7 7 25 35 40 35 4 0 8 -6 8 -14z m-716 -48 c-9 -18 -17 -34 -19 -35 -1
-2 -15 11 -31 28 l-29 31 32 -6 c18 -4 34 -3 38 3 16 26 24 8 9 -21z m612 -6
c-23 -23 -28 -25 -36 -12 -17 27 -11 36 26 37 l37 1 -27 -26z m-670 -111 c-26
-51 -41 -62 -48 -39 -3 7 6 21 19 31 13 10 23 24 23 31 0 13 21 38 28 32 2 -2
-8 -27 -22 -55z m708 2 c22 -24 26 -35 18 -49 -8 -15 -14 -10 -36 34 -25 50
-34 76 -18 57 4 -6 20 -24 36 -42z m-744 22 c0 -10 -10 -15 -30 -15 -20 0 -30
5 -30 15 0 10 10 15 30 15 20 0 30 -5 30 -15z m818 3 c-5 -15 -33 -22 -54 -14
-24 9 -6 26 27 26 20 0 29 -4 27 -12z m-286 -266 l44 -78 -97 -128 c-53 -70
-100 -127 -103 -127 -3 1 -49 58 -102 128 -75 98 -94 130 -87 142 6 9 25 44
43 79 l32 62 113 0 113 0 44 -78z m-492 -642 c28 -56 25 -59 -14 -14 -18 21
-31 44 -29 51 7 19 21 7 43 -37z m716 3 c-14 -12 -26 -26 -26 -31 0 -5 -7 -15
-15 -22 -14 -11 -14 -10 -6 14 6 14 18 40 26 57 14 26 19 28 32 18 13 -12 12
-16 -11 -36z m-746 -34 c0 -5 -16 -9 -35 -9 -41 0 -47 17 -7 22 31 4 42 1 42
-13z m796 11 c8 0 14 -4 14 -10 0 -5 -13 -10 -30 -10 -21 0 -30 5 -30 16 0 11
5 14 16 10 9 -3 22 -6 30 -6z m-696 -119 c0 -4 -18 -5 -41 -3 l-40 4 23 25 23
24 17 -21 c10 -12 18 -25 18 -29z m602 32 c26 -23 23 -30 -17 -35 -37 -4 -41
1 -25 33 13 23 18 24 42 2z m-712 -47 c0 -16 -27 -29 -42 -20 -7 5 -4 12 7 21
24 17 35 17 35 -1z m801 4 c5 0 9 -7 9 -15 0 -18 -5 -18 -31 -5 -23 13 -26 35
-3 26 9 -3 20 -6 25 -6z m-711 -17 c0 -12 -33 -43 -47 -43 -20 0 -16 16 10 33
24 17 37 21 37 10z m628 -12 c24 -21 28 -31 12 -31 -18 0 -60 32 -54 41 8 13
16 11 42 -10z m-598 -49 c0 -4 -27 -36 -60 -70 -45 -47 -62 -60 -66 -48 -4 10
14 34 53 70 56 53 73 65 73 48z m617 -65 c25 -24 39 -45 36 -54 -4 -11 -23 3
-69 48 -35 34 -61 66 -58 71 6 10 24 -3 91 -65z m-547 -65 c0 -4 -7 -18 -16
-31 -12 -16 -19 -20 -27 -12 -7 7 -5 17 8 31 18 20 35 26 35 12z m420 -12 c15
-28 2 -46 -16 -23 -7 10 -14 24 -14 31 0 19 18 14 30 -8z m-380 -64 c0 -25
-12 -46 -26 -46 -17 0 -17 2 -2 35 12 27 28 33 28 11z m334 -15 c13 -24 13
-30 2 -34 -15 -6 -40 39 -31 54 9 14 13 11 29 -20z"/>
<path d="M1286 2085 c-180 -357 -214 -418 -243 -436 -18 -11 -33 -23 -33 -25
0 -2 29 -4 65 -4 51 0 65 3 65 15 0 8 34 83 75 165 l75 150 207 -2 207 -3 73
-140 c40 -77 73 -150 73 -162 0 -22 4 -23 68 -23 l67 0 -25 20 c-14 11 -28 20
-32 20 -5 0 -102 189 -218 420 -116 231 -211 420 -213 420 -1 0 -96 -187 -211
-415z m277 230 c128 -253 177 -355 169 -355 -4 0 -54 91 -109 203 -56 111
-108 210 -115 220 -13 17 -25 -3 -123 -197 -61 -119 -111 -212 -113 -207 -5
14 221 462 229 454 3 -5 31 -57 62 -118z m14 -117 c43 -84 79 -157 81 -163 2
-6 -55 -9 -161 -7 l-163 3 81 159 c44 88 81 160 82 160 2 0 38 -69 80 -152z
m103 -208 c0 -6 -68 -10 -185 -10 -117 0 -185 4 -185 10 0 6 68 10 185 10 117
0 185 -4 185 -10z"/>
<path d="M1449 2160 l-46 -90 94 0 93 0 -45 90 c-25 50 -46 90 -48 90 -1 0
-23 -41 -48 -90z m61 -30 c0 -11 -7 -20 -15 -20 -15 0 -21 21 -8 33 12 13 23
7 23 -13z"/>
<path d="M1055 1486 c30 -24 73 -101 241 -439 113 -225 206 -408 208 -406 2 2
97 189 211 415 164 324 215 415 237 428 30 18 39 42 12 32 -9 -3 -36 -6 -60
-6 -25 0 -44 -5 -44 -11 0 -6 -35 -80 -77 -165 l-78 -154 -202 0 -203 0 -75
150 c-41 82 -75 158 -75 167 0 15 -10 18 -66 18 l-65 0 36 -29z m323 -511 c56
-110 107 -209 115 -219 13 -18 20 -8 83 115 37 74 86 170 107 214 22 44 42 75
44 69 6 -17 -217 -458 -227 -448 -14 15 -230 450 -230 464 0 20 1 18 108 -195z
m310 173 c-5 -13 -361 -13 -366 0 -2 7 64 10 183 10 117 0 185 -3 183 -10z
m-101 -195 c-44 -87 -81 -160 -83 -162 -2 -2 -136 254 -162 312 -2 4 70 7 161
7 l164 0 -80 -157z"/>
<path d="M1456 979 c25 -50 47 -89 49 -87 2 2 23 43 47 91 l44 87 -93 0 -93 0
46 -91z m58 45 c13 -5 14 -9 5 -20 -9 -11 -15 -11 -25 -3 -8 6 -11 15 -8 20 6
11 8 11 28 3z"/>
<path d="M1488 1803 l-77 -4 -31 -50 -31 -51 58 -75 c32 -41 65 -83 73 -94 15
-19 18 -17 81 63 36 46 69 89 73 96 8 13 -50 124 -62 120 -4 -1 -42 -4 -84 -5z
m60 -30 c-26 -55 -33 -63 -53 -63 -20 0 -27 8 -53 63 -2 4 22 7 53 7 31 0 55
-3 53 -7z m-124 -61 c-34 -4 -38 1 -22 27 l13 21 17 -22 c17 -22 16 -23 -8
-26z m176 6 c0 -4 -11 -8 -25 -8 -28 0 -30 3 -14 32 11 21 12 21 25 3 8 -10
14 -22 14 -27z m-134 -78 c21 -71 17 -75 -22 -23 -20 26 -41 54 -47 61 -9 11
-4 13 23 10 30 -3 34 -8 46 -48z m40 28 c-3 -13 -6 -27 -7 -33 -1 -12 -17 25
-18 43 -1 6 6 12 15 12 12 0 15 -6 10 -22z m94 14 c0 -5 -9 -17 -20 -27 -12
-10 -30 -34 -41 -52 -12 -19 -23 -32 -26 -30 -4 4 9 66 22 105 5 13 65 17 65
4z"/>
</g>
</svg>
